<svg width="31" height="31" viewBox="0 0 31 31" fill="none" xmlns="http://www.w3.org/2000/svg">
<path d="M23.0835 2.24978C23.4556 1.8777 23.8973 1.58255 24.3834 1.38118C24.8696 1.17981 25.3906 1.07617 25.9168 1.07617C26.443 1.07617 26.9641 1.17981 27.4502 1.38118C27.9364 1.58255 28.3781 1.8777 28.7502 2.24978C29.1222 2.62186 29.4174 3.06358 29.6188 3.54972C29.8201 4.03587 29.9238 4.55691 29.9238 5.08311C29.9238 5.60931 29.8201 6.13035 29.6188 6.6165C29.4174 7.10264 29.1222 7.54437 28.7502 7.91644L9.62516 27.0414L1.8335 29.1664L3.9585 21.3748L23.0835 2.24978Z" stroke="#0B0B15" stroke-opacity="0.75" stroke-width="2" stroke-linecap="round" stroke-linejoin="round"/>
</svg>
